# xmcd
#
# Track frame offsets:
#       150
#       9865
#       23945
#       36655
#       46010
#       54800
#       65245
#       74530
#       85385
#       95745
#       106015
#       114095
#       123770
#       135270
#
# Disc length: 2007 seconds
#
# Revision: 2
# Processed by: cddbd v1.4PL0 Copyright (c) Steve Scherf et al.
# Submitted via: MusiCat 1.1
#
DISCID=af07d50e
DTITLE=The Arts - The Arts Play "The Ventures and The Shadows"
DYEAR=1900
DGENRE=
TTITLE0=Green Grass
TTITLE1=Night Train
TTITLE2=Donna
TTITLE3=Find me a Gold Street
TTITLE4=Sealed With a Kiss
TTITLE5=Music To Watch Girls By
TTITLE6=Magnificient Seven
TTITLE7=I Will Folow Him
TTITLE8=Sukiaki
TTITLE9=The High and The Mighty
TTITLE10=Hawai 5.0
TTITLE11=Batman
TTITLE12=Rhithm of The Rain
TTITLE13=Honky Tonk
EXTD=0\n\n\n
EXTT0=
EXTT1=
EXTT2=
EXTT3=
EXTT4=
EXTT5=
EXTT6=
EXTT7=
EXTT8=
EXTT9=
EXTT10=
EXTT11=
EXTT12=
EXTT13=
PLAYORDER=
